<svg xmlns="http://www.w3.org/2000/svg" viewBox="0 0 1000 1000" fill="none" stroke="#A67C52" stroke-width="0.5" opacity="1">
  <!-- Golden ratio spirals and grid -->
  <rect x="0" y="0" width="618" height="1000"/>
  <rect x="618" y="0" width="382" height="618"/>
  <rect x="618" y="618" width="236" height="382"/>
  <rect x="854" y="618" width="146" height="236"/>
  <rect x="854" y="854" width="90" height="146"/>
  <!-- Compass arcs -->
  <path d="M 618 1000 A 618 618 0 0 1 0 382" />
  <path d="M 618 618 A 382 382 0 0 1 1000 236" />
  <path d="M 854 618 A 236 236 0 0 1 618 854" />
  <path d="M 854 854 A 146 146 0 0 1 1000 708" />
  <!-- Cross lines -->
  <line x1="0" y1="382" x2="1000" y2="382"/>
  <line x1="0" y1="618" x2="1000" y2="618"/>
  <line x1="382" y1="0" x2="382" y2="1000"/>
  <line x1="618" y1="0" x2="618" y2="1000"/>
  <!-- Diagonal -->
  <line x1="0" y1="0" x2="1000" y2="1000"/>
  <line x1="0" y1="1000" x2="1000" y2="0"/>
</svg>